<svg width="12" height="7" viewBox="0 0 12 7" fill="none" xmlns="http://www.w3.org/2000/svg">
<path d="M5.23905 6.14673L0.148403 0.896729C0.101106 0.847951 0.0635881 0.790043 0.0379905 0.726312C0.0123939 0.662581 -0.000782039 0.594274 -0.000782036 0.525291C-0.000782033 0.456309 0.0123939 0.388002 0.0379906 0.324271C0.0635881 0.260539 0.101106 0.202632 0.148403 0.153854C0.195701 0.105076 0.251851 0.0663831 0.313648 0.0399847C0.375444 0.0135864 0.441678 -4.70227e-07 0.508567 -4.67303e-07C0.575456 -4.64379e-07 0.641689 0.0135864 0.703486 0.0399848C0.765284 0.0663832 0.821433 0.105076 0.868731 0.153854L5.59922 5.03307L10.3297 0.153854C10.4252 0.0553428 10.5548 -2.92072e-08 10.6899 -2.22643e-08C10.825 -1.53215e-08 10.9545 0.0553428 11.05 0.153854C11.1456 0.252365 11.1992 0.385976 11.1992 0.525292C11.1992 0.664608 11.1456 0.798218 11.05 0.89673L5.95938 6.14673C5.9121 6.19554 5.85596 6.23427 5.79416 6.26069C5.73236 6.28711 5.66612 6.3007 5.59922 6.3007C5.53232 6.3007 5.46608 6.28711 5.40428 6.26069C5.34248 6.23427 5.28633 6.19554 5.23905 6.14673Z" fill="#7E7E7E"/>
</svg>
